<svg width="34" height="33" viewBox="0 0 34 33" fill="none" xmlns="http://www.w3.org/2000/svg"><path fill-rule="evenodd" clip-rule="evenodd" d="M23.3325 33V20.2207h4.42l.6613-4.9796h-5.083v-3.1796c0-1.4421.4131-2.4255 2.5449-2.4255h2.7166V5.181c-1.3155-.13719-2.6379-.20329-3.961-.198-3.9168 0-6.5977 2.32155-6.5977 6.5835v3.6746H13.6v4.9796h4.4319V33H1.8768C.8398 33 0 32.1849 0 31.1784V1.8216C0 .8151.8398 0 1.8768 0h30.2464C33.1602 0 34 .8151 34 1.8216v29.3568C34 32.1849 33.1602 33 32.1232 33h-8.7907Z" fill="#780116"/></svg>