<svg width="41" height="38" viewBox="0 0 41 38" fill="none" xmlns="http://www.w3.org/2000/svg"><path d="M11.89 0h17.22C35.67 0 41 4.94 41 11.02v15.96c0 2.9227-1.2527 5.7257-3.4825 7.7923C35.2877 36.839 32.2634 38 29.11 38H11.89C5.33 38 0 33.06 0 26.98V11.02c0-2.92269 1.25269-5.72567 3.4825-7.79232C5.71231 1.16103 8.73658 0 11.89 0Zm-.41 3.8c-1.9573 0-3.83443.72064-5.21845 2.00339S4.1 8.82592 4.1 10.64v16.72c0 3.781 3.3005 6.84 7.38 6.84h18.04c1.9573 0 3.8344-.7206 5.2184-2.0034C36.1225 30.9139 36.9 29.1741 36.9 27.36V10.64c0-3.781-3.3005-6.84-7.38-6.84H11.48Zm19.7825 2.85c.6796 0 1.3314.25022 1.812.69562.4805.4454.7505 1.04949.7505 1.67938 0 .62989-.27 1.234-.7505 1.6794-.4806.4454-1.1324.6956-1.812.6956s-1.3314-.2502-1.812-.6956C28.97 10.259 28.7 9.65489 28.7 9.025c0-.62989.27-1.23398.7505-1.67938.4806-.4454 1.1324-.69562 1.812-.69562ZM20.5 9.5c2.7185 0 5.3256 1.0009 7.2478 2.7825C29.6701 14.0641 30.75 16.4804 30.75 19c0 2.5196-1.0799 4.9359-3.0022 6.7175C25.8256 27.4991 23.2185 28.5 20.5 28.5c-2.7185 0-5.3256-1.0009-7.2478-2.7825C11.3299 23.9359 10.25 21.5196 10.25 19c0-2.5196 1.0799-4.9359 3.0022-6.7175C15.1744 10.5009 17.7815 9.5 20.5 9.5Zm0 3.8c-1.6311 0-3.1954.6005-4.3487 1.6695C14.9979 16.0384 14.35 17.4883 14.35 19c0 1.5117.6479 2.9616 1.8013 4.0305C17.3046 24.0995 18.8689 24.7 20.5 24.7s3.1954-.6005 4.3487-1.6695C26.0021 21.9616 26.65 20.5117 26.65 19c0-1.5117-.6479-2.9616-1.8013-4.0305C23.6954 13.9005 22.1311 13.3 20.5 13.3Z" fill="#780116"/></svg>