<svg width="33" height="33" viewBox="0 0 33 33" fill="none" xmlns="http://www.w3.org/2000/svg">
<path d="M32.5165 30.1819C32.6698 30.3352 32.7914 30.5171 32.8743 30.7174C32.9573 30.9177 33 31.1324 33 31.3492C33 31.566 32.9573 31.7806 32.8743 31.9809C32.7914 32.1812 32.6698 32.3632 32.5165 32.5165C32.3632 32.6698 32.1812 32.7914 31.9809 32.8743C31.7806 32.9573 31.566 33 31.3492 33C31.1324 33 30.9177 32.9573 30.7174 32.8743C30.5171 32.7914 30.3352 32.6698 30.1819 32.5165L16.5 18.8326L2.81814 32.5165C2.50855 32.8261 2.08865 33 1.65083 33C1.213 33 0.793105 32.8261 0.483515 32.5165C0.173926 32.2069 8.6306e-09 31.787 0 31.3492C-8.6306e-09 30.9113 0.173926 30.4915 0.483515 30.1819L14.1674 16.5L0.483515 2.81814C0.173926 2.50855 0 2.08865 0 1.65083C0 1.213 0.173926 0.793105 0.483515 0.483515C0.793105 0.173926 1.213 0 1.65083 0C2.08865 0 2.50855 0.173926 2.81814 0.483515L16.5 14.1674L30.1819 0.483515C30.4915 0.173926 30.9113 -8.6306e-09 31.3492 0C31.787 8.6306e-09 32.2069 0.173926 32.5165 0.483515C32.8261 0.793105 33 1.213 33 1.65083C33 2.08865 32.8261 2.50855 32.5165 2.81814L18.8326 16.5L32.5165 30.1819Z" fill="#780116"/>
</svg>
