<svg width="36" height="38" viewBox="0 0 36 38" fill="none" xmlns="http://www.w3.org/2000/svg"><path d="M28.5612 5.95333C26.9922 4.30567 26.1273 2.19006 26.1275 0h-7.0943v26.1778c-.0536 1.4169-.7037 2.7594-1.8131 3.744-1.1094.9847-2.5914 1.5346-4.1334 1.5338-3.26017 0-5.96935-2.4489-5.96935-5.4889 0-3.6311 3.81125-6.3545 7.73725-5.2356V14.06C6.93367 13.0889 0 18.7467 0 25.9667 0 32.9967 6.33674 38 13.0638 38c7.2092 0 13.0637-5.3833 13.0637-12.0333V12.6878c2.8768 1.8997 6.3307 2.9189 9.8725 2.9133V9.07778s-4.3163.19-7.4388-3.12445Z" fill="#780116"/></svg>