<svg width="41" height="28" viewBox="0 0 41 28" fill="none" xmlns="http://www.w3.org/2000/svg"><path d="m16.4 20 10.6395-6L16.4 8v12ZM40.098 4.34c.2665.94.451 2.2.574 3.8.1435 1.6.205 2.98.205 4.18L41 14c0 4.38-.328 7.6-.902 9.66-.5125 1.8-1.7015 2.96-3.5465 3.46-.9635.26-2.7265.44-5.4325.56-2.665.14-5.1045.2-7.3595.2L20.5 28c-8.5895 0-13.94-.32-16.0515-.88-1.845-.5-3.034-1.66-3.5465-3.46-.2665-.94-.451-2.2-.574-3.8-.1435-1.6-.205-2.98-.205-4.18L0 14c0-4.38.328-7.6.902-9.66.5125-1.8 1.7015-2.96 3.5465-3.46C5.412.62 7.175.44 9.881.32c2.665-.14 5.1045-.2 7.3595-.2L20.5 0c8.5895 0 13.94.32 16.0515.88 1.845.5 3.034 1.66 3.5465 3.46Z" fill="#780116"/></svg>